<svg width="724" height="148" viewBox="0 0 724 148" fill="none" xmlns="http://www.w3.org/2000/svg">
<g filter="url(#filter0_d_2_135)">
<path d="M515.132 26.9337C519.829 26.9337 523.837 27.7242 527.109 29.3585H527.108C530.308 30.9214 532.918 32.8999 534.907 35.3087H534.906C536.299 36.9397 537.471 38.5637 538.42 40.1808V27.9884H563V110.742C563 117.8 561.246 123.782 557.68 128.624C554.137 133.435 549.239 137.024 543.034 139.402L543.033 139.401C536.883 141.808 529.836 143 521.911 143C514.46 143 508.018 141.987 502.609 139.931C497.261 137.919 492.953 135.151 489.73 131.603C486.523 128.072 484.426 124.086 483.462 119.652L483.23 118.591L484.306 118.448L505.339 115.654L506.112 115.552L506.4 116.277C506.985 117.753 507.918 119.154 509.224 120.477C510.41 121.677 511.977 122.678 513.957 123.461L514.358 123.615L514.366 123.618C516.535 124.442 519.218 124.87 522.445 124.87C527.228 124.87 531.079 123.717 534.071 121.484L534.081 121.478C536.969 119.378 538.527 115.791 538.527 110.426V97.8878C537.554 99.5713 536.306 101.174 534.791 102.697C532.686 104.813 530.003 106.515 526.77 107.821C523.491 109.146 519.62 109.792 515.185 109.792C508.87 109.792 503.096 108.349 497.885 105.449L497.877 105.445C492.667 102.49 488.536 97.9943 485.47 92.0118L485.467 92.005C482.422 85.9558 480.929 78.3746 480.929 69.3116C480.929 60.0365 482.458 52.214 485.569 45.8888C488.664 39.5975 492.805 34.8368 498.01 31.6652L498.013 31.6642C503.226 28.5108 508.939 26.9338 515.132 26.9337ZM522.391 46.8029C518.843 46.8029 515.92 47.7494 513.559 49.5948L513.552 49.6007C511.161 51.4373 509.323 54.0134 508.061 57.381C506.795 60.7606 506.15 64.6964 506.15 69.2062C506.15 73.7842 506.795 77.6938 508.053 80.9581L508.302 81.5538C509.577 84.4848 511.323 86.7428 513.524 88.3693L513.973 88.6759C516.256 90.1601 519.046 90.9249 522.391 90.9249C525.888 90.9249 528.771 90.0726 531.099 88.422L531.54 88.0948C533.712 86.4149 535.412 84.086 536.624 81.0636L536.626 81.0577C537.953 77.7981 538.634 73.8564 538.634 69.2062C538.634 64.5542 537.971 60.5712 536.674 57.2345L536.672 57.2316C535.375 53.8614 533.52 51.302 531.132 49.5001C528.767 47.7164 525.872 46.8029 522.391 46.8029Z" fill="white" stroke="#00BFA5" stroke-width="2"/>
<path d="M420.008 26.9337C424.705 26.9337 428.713 27.7242 431.985 29.3585H431.984C435.184 30.9214 437.794 32.8999 439.783 35.3087H439.782C441.175 36.9397 442.348 38.5637 443.296 40.1808V27.9884H467.876V110.742C467.876 117.8 466.123 123.782 462.557 128.624C459.013 133.435 454.116 137.024 447.91 139.402L447.909 139.401C441.759 141.808 434.712 143 426.787 143C419.336 143 412.894 141.987 407.485 139.931C402.137 137.919 397.83 135.151 394.606 131.603C391.4 128.072 389.303 124.086 388.338 119.652L388.106 118.591L389.183 118.448L410.215 115.654L410.988 115.552L411.276 116.277C411.861 117.753 412.794 119.154 414.101 120.477C415.286 121.677 416.853 122.678 418.833 123.461L419.234 123.615L419.242 123.618C421.411 124.442 424.095 124.87 427.321 124.87C432.104 124.87 435.955 123.717 438.947 121.484L438.957 121.478C441.845 119.378 443.403 115.791 443.403 110.426V97.8878C442.43 99.5713 441.182 101.174 439.667 102.697C437.562 104.813 434.879 106.515 431.646 107.821C428.367 109.146 424.496 109.792 420.062 109.792C413.746 109.792 407.972 108.349 402.761 105.449L402.753 105.445C397.543 102.49 393.412 97.9943 390.347 92.0118L390.343 92.005C387.298 85.9558 385.806 78.3746 385.806 69.3116C385.806 60.0365 387.334 52.214 390.445 45.8888C393.54 39.5975 397.681 34.8368 402.887 31.6652L402.89 31.6642C408.102 28.5108 413.815 26.9338 420.008 26.9337ZM427.268 46.8029C423.72 46.8029 420.796 47.7494 418.436 49.5948L418.429 49.6007C416.038 51.4373 414.199 54.0134 412.938 57.381C411.671 60.7606 411.026 64.6964 411.026 69.2062C411.026 73.7842 411.671 77.6938 412.93 80.9581L413.179 81.5538C414.453 84.4848 416.199 86.7428 418.4 88.3693L418.85 88.6759C421.132 90.1601 423.922 90.9249 427.268 90.9249C430.764 90.9249 433.648 90.0726 435.976 88.422L436.416 88.0948C438.588 86.4149 440.288 84.086 441.5 81.0636L441.502 81.0577C442.829 77.7981 443.51 73.8564 443.51 69.2062C443.51 64.5542 442.847 60.5712 441.55 57.2345L441.548 57.2316C440.251 53.8614 438.396 51.302 436.008 49.5001C433.643 47.7164 430.748 46.8029 427.268 46.8029Z" fill="white" stroke="#00BFA5" stroke-width="2"/>
<path d="M320.079 27.988V76.5261L320.1 77.3757C320.274 81.5603 321.506 84.799 323.711 87.1882C326.057 89.7293 329.209 91.03 333.279 91.03C335.859 91.03 338.26 90.4532 340.496 89.3015C342.709 88.1278 344.499 86.3993 345.87 84.0876L345.875 84.0789C347.251 81.8148 347.954 78.9696 347.919 75.489V27.988H372.659V110.952H348.827V98.0085C346.865 101.85 344.017 105.024 340.293 107.515L340.292 107.514C335.827 110.526 330.412 112.006 324.097 112.006C318.462 112.006 313.46 110.74 309.122 108.177C304.788 105.617 301.404 101.977 298.974 97.2869L298.972 97.281C296.573 92.5792 295.375 86.9889 295.339 80.5447V27.988H320.079Z" fill="white" stroke="#00BFA5" stroke-width="2"/>
<path d="M224.942 1V39.8506C225.832 38.3407 226.917 36.8245 228.193 35.3027L228.194 35.3018C230.217 32.8979 232.824 30.9199 235.99 29.3564C239.262 27.7235 243.268 26.9336 247.963 26.9336C254.122 26.9336 259.818 28.5293 265.028 31.7168H265.029C270.272 34.8887 274.432 39.6671 277.526 45.9941L277.813 46.5918C280.732 52.8144 282.166 60.4898 282.166 69.5752C282.166 78.7093 280.672 86.4895 277.639 92.8779L277.64 92.8789C274.652 99.2099 270.548 104.058 265.312 107.371H265.312C260.126 110.639 254.317 112.269 247.91 112.27C243.393 112.27 239.486 111.532 236.225 110.015L236.221 110.013C233.058 108.524 230.435 106.64 228.376 104.348L228.371 104.342C226.861 102.634 225.61 100.904 224.622 99.1514V110.952H200.202V1H224.942ZM240.704 46.8027C237.186 46.8027 234.274 47.7177 231.911 49.5C229.561 51.2994 227.723 53.8734 226.425 57.2803C225.126 60.6898 224.462 64.746 224.462 69.4697C224.462 74.1931 225.125 78.2681 226.426 81.7148C227.724 85.155 229.58 87.7843 231.971 89.6553C234.335 91.4712 237.228 92.4004 240.704 92.4004C244.211 92.4003 247.114 91.4565 249.476 89.6133C251.872 87.7071 253.714 85.0584 254.979 81.6172L254.98 81.6123C256.283 78.1263 256.945 74.0843 256.945 69.4697C256.945 64.888 256.3 60.8985 255.033 57.4834C253.77 54.0789 251.93 51.4661 249.536 49.5947C247.175 47.7493 244.252 46.8028 240.704 46.8027Z" fill="white" stroke="#00BFA5" stroke-width="2"/>
<path d="M147.395 26.9337C152.912 26.9337 158.066 27.8119 162.848 29.5782H162.847C167.671 31.3118 171.884 33.9329 175.474 37.4406C179.115 40.9633 181.931 45.3795 183.934 50.6642L184.299 51.6632C186.064 56.7042 186.935 62.5049 186.935 69.048V76.215H131.116C131.225 79.6895 131.94 82.6751 133.232 85.1964C134.676 87.9449 136.694 90.0484 139.295 91.5304C141.894 93.0107 145.009 93.7706 148.676 93.7706C151.11 93.7706 153.314 93.4327 155.298 92.7687C157.272 92.108 158.94 91.1243 160.322 89.8253C161.7 88.5294 162.757 86.9371 163.49 85.0304L163.753 84.3429L164.488 84.3907L185.52 85.7609L186.675 85.8361L186.433 86.9679C185.365 91.9616 183.204 96.3553 179.954 100.132L179.637 100.495C176.247 104.316 171.876 107.281 166.555 109.404L166.552 109.406C161.253 111.5 155.163 112.533 148.302 112.533C139.734 112.533 132.301 110.819 126.038 107.348L126.032 107.344V107.343C119.813 103.839 115.015 98.8836 111.653 92.4962L111.652 92.4943C108.289 86.0692 106.626 78.5061 106.626 69.839C106.626 61.378 108.291 53.905 111.651 47.4493C115.009 40.9983 119.746 35.9557 125.854 32.3439L125.856 32.3429C132.011 28.725 139.203 26.9337 147.395 26.9337ZM147.768 45.6954C144.475 45.6955 141.595 46.4482 139.097 47.9279L139.093 47.9298C136.61 49.3878 134.672 51.3526 133.265 53.8341L133.262 53.839C132.133 55.8031 131.444 57.9529 131.2 60.2999H163.504C163.372 57.6328 162.707 55.274 161.526 53.2032C160.193 50.8681 158.351 49.048 155.983 47.7306L155.969 47.7228C153.652 46.3825 150.929 45.6954 147.768 45.6954Z" fill="white" stroke="#00BFA5" stroke-width="2"/>
<path d="M41.0742 1C52.2001 1 61.8368 3.18704 69.9473 7.60352C78.0575 11.9848 84.3022 18.2947 88.6641 26.5127L89.0703 27.2881C93.1979 35.3484 95.2412 44.8871 95.2412 55.8701C95.2412 67.2422 93.0638 77.0756 88.665 85.332L88.6641 85.3311C84.3019 93.5858 78.0224 99.9304 69.8418 104.347C61.6947 108.764 51.9864 110.952 40.7539 110.952H1V1H41.0742ZM26.1133 89.3965H39.793C46.5123 89.3965 52.0922 88.2205 56.5762 85.9229C61.0651 83.6058 64.4364 80.034 66.6973 75.1631L66.6982 75.1602C68.9997 70.2418 70.1807 63.8293 70.1807 55.8701C70.1806 47.9825 69.0007 41.6237 66.7002 36.7412L66.6973 36.7354C64.4359 31.8636 61.0826 28.3113 56.6328 26.0303C52.1484 23.7317 46.5673 22.5557 39.8467 22.5557H26.1133V89.3965Z" fill="white" stroke="#00BFA5" stroke-width="2"/>
</g>
<g filter="url(#filter1_d_2_135)">
<mask id="path-7-outside-1_2_135" maskUnits="userSpaceOnUse" x="586.518" y="10.0909" width="122" height="122" fill="black">
<rect fill="white" x="586.518" y="10.0909" width="122" height="122"/>
<path d="M647.518 11.0909C680.656 11.0909 707.518 37.9539 707.518 71.0909C707.518 104.228 680.656 131.091 647.518 131.091C614.381 131.091 587.518 104.228 587.518 71.0909C587.518 37.9539 614.381 11.0909 647.518 11.0909ZM647.518 28.0909C623.77 28.091 604.518 47.3427 604.518 71.0909C604.518 94.8392 623.77 114.091 647.518 114.091C671.267 114.091 690.518 94.8392 690.518 71.0909C690.518 47.3427 671.267 28.0909 647.518 28.0909Z"/>
</mask>
<path d="M647.518 11.0909C680.656 11.0909 707.518 37.9539 707.518 71.0909C707.518 104.228 680.656 131.091 647.518 131.091C614.381 131.091 587.518 104.228 587.518 71.0909C587.518 37.9539 614.381 11.0909 647.518 11.0909ZM647.518 28.0909C623.77 28.091 604.518 47.3427 604.518 71.0909C604.518 94.8392 623.77 114.091 647.518 114.091C671.267 114.091 690.518 94.8392 690.518 71.0909C690.518 47.3427 671.267 28.0909 647.518 28.0909Z" fill="#00BFA5"/>
<path d="M647.518 28.0909V27.0909V28.0909ZM647.518 114.091V115.091V114.091ZM647.518 11.0909V12.0909C680.103 12.0909 706.518 38.5061 706.518 71.0909H707.518H708.518C708.518 37.4016 681.208 10.0909 647.518 10.0909V11.0909ZM707.518 71.0909H706.518C706.518 103.676 680.103 130.091 647.518 130.091V131.091V132.091C681.208 132.091 708.518 104.78 708.518 71.0909H707.518ZM647.518 131.091V130.091C614.934 130.091 588.518 103.676 588.518 71.0909H587.518H586.518C586.518 104.78 613.829 132.091 647.518 132.091V131.091ZM587.518 71.0909H588.518C588.518 38.5061 614.934 12.0909 647.518 12.0909V11.0909V10.0909C613.829 10.0909 586.518 37.4016 586.518 71.0909H587.518ZM647.518 28.0909V27.0909C623.218 27.091 603.518 46.7904 603.518 71.0909H604.518H605.518C605.518 47.895 624.323 29.091 647.518 29.0909V28.0909ZM604.518 71.0909H603.518C603.518 95.3915 623.218 115.091 647.518 115.091V114.091V113.091C624.323 113.091 605.518 94.2869 605.518 71.0909H604.518ZM647.518 114.091V115.091C671.819 115.091 691.518 95.3915 691.518 71.0909H690.518H689.518C689.518 94.2869 670.714 113.091 647.518 113.091V114.091ZM690.518 71.0909H691.518C691.518 46.7904 671.819 27.0909 647.518 27.0909V28.0909V29.0909C670.714 29.0909 689.518 47.895 689.518 71.0909H690.518Z" fill="#00BFA5" mask="url(#path-7-outside-1_2_135)"/>
<path d="M657.01 2.09094V12.8973H638.027V2.09094H657.01Z" fill="#00BFA5"/>
<path d="M657.686 130.084V142.091H638.704V130.084H657.686Z" fill="#00BFA5"/>
<path d="M705.654 62.125H717.518V81.3364H705.654V62.125Z" fill="#00BFA5"/>
<path d="M577.518 62.4452H589.383V81.6566H577.518V62.4452Z" fill="#00BFA5"/>
<path d="M703.738 28.8831L695.349 37.3729L681.926 23.7884L690.315 15.2986L703.738 28.8831Z" fill="#00BFA5"/>
<path d="M613.569 120.136L605.179 128.625L591.756 115.041L600.145 106.551L613.569 120.136Z" fill="#00BFA5"/>
<path d="M695.349 106.551L703.738 115.041L690.315 128.625L681.925 120.135L695.349 106.551Z" fill="#00BFA5"/>
<path d="M604.423 14.5779L612.812 23.0677L599.389 36.6522L591 28.1624L604.423 14.5779Z" fill="#00BFA5"/>
</g>
<defs>
<filter id="filter0_d_2_135" x="0" y="0" width="570" height="148" filterUnits="userSpaceOnUse" color-interpolation-filters="sRGB">
<feFlood flood-opacity="0" result="BackgroundImageFix"/>
<feColorMatrix in="SourceAlpha" type="matrix" values="0 0 0 0 0 0 0 0 0 0 0 0 0 0 0 0 0 0 127 0" result="hardAlpha"/>
<feOffset dx="4" dy="2"/>
<feGaussianBlur stdDeviation="1"/>
<feComposite in2="hardAlpha" operator="out"/>
<feColorMatrix type="matrix" values="0 0 0 0 0 0 0 0 0 0.74902 0 0 0 0 0.647059 0 0 0 1 0"/>
<feBlend mode="normal" in2="BackgroundImageFix" result="effect1_dropShadow_2_135"/>
<feBlend mode="normal" in="SourceGraphic" in2="effect1_dropShadow_2_135" result="shape"/>
</filter>
<filter id="filter1_d_2_135" x="577.518" y="2.09094" width="146" height="144" filterUnits="userSpaceOnUse" color-interpolation-filters="sRGB">
<feFlood flood-opacity="0" result="BackgroundImageFix"/>
<feColorMatrix in="SourceAlpha" type="matrix" values="0 0 0 0 0 0 0 0 0 0 0 0 0 0 0 0 0 0 127 0" result="hardAlpha"/>
<feOffset dx="4" dy="2"/>
<feGaussianBlur stdDeviation="1"/>
<feComposite in2="hardAlpha" operator="out"/>
<feColorMatrix type="matrix" values="0 0 0 0 1 0 0 0 0 1 0 0 0 0 1 0 0 0 0.8 0"/>
<feBlend mode="normal" in2="BackgroundImageFix" result="effect1_dropShadow_2_135"/>
<feBlend mode="normal" in="SourceGraphic" in2="effect1_dropShadow_2_135" result="shape"/>
</filter>
</defs>
</svg>
